<svg height='100px' width='100px'  fill="#FF00BB" xmlns="http://www.w3.org/2000/svg" xmlns:xlink="http://www.w3.org/1999/xlink" version="1.1" x="0px" y="0px" viewBox="0 0 100 100" enable-background="new 0 0 100 100" xml:space="preserve"><path d="M90.563,10.512l1.172,37.555c-0.888-0.957-1.635-1.545-2.022-1.821l-1.173-35.734H90.563z"></path><path d="M55.279,71.014c0.127,0.319,0.313,1.092,0.076,1.44c-0.11,0.164-0.352,0.246-0.715,0.246l0,0c-0.1,0-0.208-0.005-0.324-0.02  c-0.207-0.022-0.413-0.06-0.614-0.105l-0.006-0.003l-0.152-0.041c-0.386-0.098-0.783-0.238-1.182-0.417  c-0.014-0.007-0.026-0.013-0.039-0.019c-0.174-0.079-0.348-0.165-0.52-0.257c-0.041-0.022-0.08-0.044-0.12-0.066  c-0.163-0.09-0.326-0.186-0.486-0.286c-0.034-0.022-0.072-0.045-0.104-0.064l-0.053-0.033c-0.267-0.175-0.499-0.344-0.684-0.487  l-0.137-0.106l0.137-0.106c0.015-0.009,0.033-0.023,0.048-0.035h0.001l0.121-0.088c0.077-0.059,0.16-0.117,0.247-0.18  c0.009-0.006,0.02-0.014,0.028-0.019c0.149-0.104,0.316-0.213,0.492-0.321c0.033-0.021,0.065-0.041,0.099-0.062  c0.087-0.051,0.178-0.103,0.27-0.154c0.038-0.02,0.078-0.042,0.118-0.063c0.334-0.181,0.7-0.354,1.09-0.496  c0.006-0.002,0.013-0.004,0.02-0.008c0.133-0.048,0.268-0.094,0.405-0.134c0.331-0.098,0.671-0.179,1.021-0.219  c0.54-0.059,0.897,0.021,1.038,0.228c0.238,0.351,0.052,1.121-0.074,1.438l-0.088,0.219L55.279,71.014z"></path><path d="M46.456,72.531l-0.152,0.041l-0.006,0.003c-0.201,0.046-0.407,0.083-0.615,0.105c-0.539,0.061-0.898-0.019-1.039-0.227  c-0.236-0.349-0.051-1.121,0.076-1.438l0.089-0.221l-0.089-0.219c-0.123-0.303-0.313-1.086-0.076-1.437  c0.111-0.165,0.352-0.248,0.717-0.248c0.1,0,0.207,0.006,0.322,0.019c0.351,0.04,0.69,0.121,1.02,0.219  c0.14,0.04,0.274,0.086,0.408,0.136c0.005,0.002,0.01,0.004,0.016,0.006c0.392,0.143,0.758,0.315,1.094,0.496  c0.039,0.021,0.078,0.044,0.117,0.063c0.092,0.052,0.182,0.104,0.269,0.154c0.036,0.022,0.069,0.043,0.103,0.064  c0.172,0.105,0.332,0.21,0.477,0.309c0.014,0.012,0.029,0.021,0.044,0.031c0.086,0.061,0.169,0.118,0.244,0.177l0.121,0.088l0,0  c0.016,0.012,0.034,0.026,0.048,0.035l0.138,0.106l-0.138,0.106c-0.185,0.144-0.416,0.313-0.684,0.487l-0.053,0.033  c-0.031,0.02-0.069,0.042-0.103,0.064c-0.161,0.101-0.324,0.196-0.487,0.286c-0.039,0.022-0.079,0.044-0.119,0.066  c-0.172,0.092-0.346,0.178-0.519,0.257c-0.015,0.006-0.026,0.012-0.042,0.019C47.238,72.293,46.842,72.434,46.456,72.531z"></path><path d="M9.437,10.512h2.023l-1.172,35.734c-0.389,0.276-1.137,0.864-2.022,1.821L9.437,10.512z"></path><path d="M3.772,62.472c0.797-10.362,6.396-14.706,7.289-15.336c0.279-0.009,0.555-0.013,0.832-0.013  c17.894,0,31.768,18.348,33.291,20.439c0.041,0.057,0.087,0.106,0.129,0.161c-0.947,0.015-1.41,0.419-1.643,0.763  c-0.521,0.771-0.268,1.843-0.116,2.31c-0.151,0.469-0.403,1.54,0.118,2.313c0.237,0.353,0.721,0.77,1.723,0.761  c-1.855,5.089-7.074,13.424-21.321,13.424c-12.088,0-18.495-13.184-18.7-13.617c-0.147-0.44-0.295-0.857-0.436-1.255  C4.052,69.924,3.351,67.953,3.772,62.472z"></path><path d="M89.243,87.498c-0.522,0.074-1.231,0.227-2.13,0.419c-2.741,0.588-7.329,1.571-12.66,1.571  c-5.719,0-10.653-1.247-14.665-3.706c-3.339-2.047-6.175-2.883-9.788-2.883c-3.614,0-6.45,0.836-9.788,2.883  c-4.014,2.459-8.947,3.706-14.666,3.706c-5.33,0-9.919-0.983-12.66-1.571c-0.898-0.192-1.607-0.345-2.129-0.419  c-1.48-0.211-2.98-0.58-3.689-0.768c-0.02-4.064-0.299-6.918-0.688-9.084c2.908,4.237,8.846,10.816,17.694,10.816  c15.116,0,20.575-8.997,22.471-14.325c0.002-0.004,0.104-0.23,0.36-0.51c0.922-0.255,1.758-0.672,2.459-1.109  c0.451-0.05,0.82-0.05,1.271,0c0.703,0.438,1.538,0.854,2.46,1.109c0.241,0.263,0.345,0.477,0.347,0.477  c1.909,5.363,7.369,14.358,22.484,14.358c8.847,0,14.785-6.579,17.693-10.816c-0.389,2.168-0.667,5.02-0.687,9.084  C92.223,86.918,90.726,87.285,89.243,87.498z"></path><path d="M95.06,72.421c-0.14,0.397-0.286,0.814-0.434,1.257c-0.22,0.463-6.628,13.615-18.7,13.615  c-14.221,0-19.446-8.302-21.322-13.424c0.012,0.002,0.025,0.004,0.037,0.004l0,0c0.969,0,1.453-0.416,1.688-0.765  c0.521-0.775,0.268-1.845,0.117-2.313c0.15-0.467,0.404-1.538-0.117-2.31c-0.231-0.344-0.697-0.746-1.642-0.763  c0.041-0.055,0.088-0.104,0.129-0.161c1.546-2.124,15.814-21.005,34.123-20.426c0.897,0.626,6.489,4.938,7.29,15.336  C96.649,67.953,95.949,69.924,95.06,72.421z"></path></svg>