<svg height='100px' width='100px'  fill="#000000" xmlns="http://www.w3.org/2000/svg" xmlns:xlink="http://www.w3.org/1999/xlink" version="1.1" x="0px" y="0px" viewBox="0 0 100 100" enable-background="new 0 0 100 100" xml:space="preserve"><path d="M93.535,62.175c-0.895-0.929-2.108-1.552-3.445-1.826c-0.071-1.368-0.247-2.748-0.559-4.131  c-0.927-4.104-5.493-29.462-5.493-39.671v-1.769h-6.481l-0.077,1.688c-0.05,1.071-1.209,26.284-1.209,30.905  c0,0.052-0.002,0.092-0.006,0.121c-0.423,0.22-1.838,0.323-2.886,0.399c-3.86,0.28-10.319,0.748-17.05,6.607  c-2.93,2.55-4.988,5.182-6.292,8.143c-1.304-2.961-3.362-5.593-6.292-8.143c-6.731-5.858-13.19-6.327-17.049-6.607  c-1.048-0.076-2.464-0.179-2.886-0.399c-0.003-0.029-0.006-0.069-0.006-0.121c0-4.621-1.16-29.834-1.21-30.905l-0.078-1.687h-6.482  v1.769c0,10.179-4.565,35.56-5.493,39.672c-0.314,1.392-0.491,2.781-0.561,4.157c-1.284,0.289-2.447,0.9-3.312,1.799  c-1.1,1.144-1.628,2.635-1.447,4.096c0.329,2.657,2.881,4.58,5.883,4.58c0.231,0,0.467-0.02,0.702-0.043  c2.503,5.927,7.389,10.713,13.862,12.856c2.446,0.811,5.099,1.221,7.884,1.221c5.859,0,12.023-1.895,16.263-4.975h0.445  c4.241,3.08,10.405,4.975,16.264,4.975c0,0,0,0,0.001,0c2.784,0,5.437-0.41,7.883-1.221c6.474-2.144,11.362-6.933,13.863-12.864  c0.279,0.033,0.557,0.051,0.831,0.051c3.002,0,5.554-1.922,5.882-4.581C95.161,64.81,94.634,63.318,93.535,62.175z M8.732,65.836  c-0.067-0.543,0.275-0.989,0.485-1.207c0.234-0.243,0.532-0.444,0.868-0.597c0.113,1.097,0.283,2.181,0.543,3.237  C9.629,67.125,8.821,66.564,8.732,65.836z M73.293,80.304c-2.087,0.691-4.365,1.041-6.77,1.041h-0.001  c-5.342,0-10.933-1.763-14.589-4.603l-0.479-0.372h-2.836l-0.479,0.372c-3.656,2.839-9.246,4.603-14.588,4.603  c-2.406,0-4.684-0.35-6.771-1.041c-9.575-3.171-15.072-13.191-12.787-23.307c0.655-2.905,4.288-22.483,5.311-34.936  c0.353,7.926,0.961,22.068,0.961,25.309c0,3.602,3.424,3.849,6.174,4.049c3.64,0.264,9.141,0.662,14.983,5.748  c4.862,4.232,6.845,8.514,6.845,14.781h3.538c0-6.267,1.983-10.549,6.845-14.781c5.842-5.085,11.343-5.484,14.984-5.748  c2.751-0.199,6.175-0.447,6.175-4.049c0-3.239,0.607-17.367,0.959-25.296c1.024,12.467,4.657,32.024,5.312,34.923  C88.363,67.114,82.867,77.133,73.293,80.304z M89.439,67.284c0.265-1.076,0.439-2.18,0.552-3.299  c0.386,0.157,0.733,0.372,0.994,0.644c0.21,0.218,0.553,0.665,0.486,1.206C91.377,66.597,90.504,67.176,89.439,67.284z"></path></svg>