<svg height='100px' width='100px'  fill="#000000" xmlns="http://www.w3.org/2000/svg" xmlns:xlink="http://www.w3.org/1999/xlink" version="1.1" x="0px" y="0px" viewBox="0 0 100 100" enable-background="new 0 0 100 100" xml:space="preserve"><path d="M93.662,83.112L89.633,53.5c-0.014-0.1-0.034-0.198-0.063-0.294L77.953,13.65c-0.192-0.655-0.705-1.167-1.36-1.357  L58.742,7.1c-0.182-0.053-0.369-0.08-0.559-0.08H41.99c-0.188,0-0.374,0.026-0.554,0.078l-18.03,5.194  c-0.712,0.205-1.239,0.796-1.397,1.502L10.567,52.837c-0.028,0.095-0.049,0.192-0.063,0.29L6.338,83.414  c-0.146,1.056,0.563,2.041,1.611,2.238l11.627,2.191c0.533,0.101,1.082-0.02,1.523-0.331c0.441-0.312,0.738-0.79,0.822-1.324  l4.642-29.538l1.944-5.226L27.526,90.93c-0.014,0.539,0.191,1.061,0.567,1.446s0.893,0.604,1.432,0.604H43.76  c0.793,0,1.512-0.469,1.831-1.195l0.661-1.505h7.503l0.869,1.638c0.347,0.654,1.026,1.063,1.767,1.063h14.078  c0.008,0.001,0.016,0,0.02,0c1.105,0,2-0.896,2-2c0-0.114-0.009-0.225-0.027-0.333L71.487,51.47l2.128,5.742l4.456,28.983  c0.084,0.545,0.389,1.031,0.843,1.344c0.453,0.312,1.017,0.423,1.556,0.308l11.633-2.51C93.124,85.117,93.804,84.147,93.662,83.112z   M62.217,16.914l3.79,2.972L50.997,45.36v-4.052l7.653-30.069l7.48,2.176l-3.733,1.812c-0.311,0.15-0.521,0.45-0.558,0.793  C61.803,16.363,61.945,16.701,62.217,16.914z M37.823,15.277l-3.688-1.913l7.38-2.126l7.482,29.882v4.202L34.188,19.892l3.787-2.937  c0.27-0.209,0.413-0.541,0.383-0.88C38.327,15.735,38.126,15.435,37.823,15.277z M43.522,11.02h13.121l-0.531,2.083H44.044  L43.522,11.02z M44.544,15.104h11.06l-5.575,21.902L44.544,15.104z M44.946,86.28c-0.793,0-1.512,0.469-1.831,1.195l-0.661,1.505  H31.576l0.413-16.617h9.08c0.553,0,1-0.448,1-1s-0.447-1-1-1h-9.031l0.765-30.796c0.024-0.977-0.661-1.829-1.62-2.014  c-0.965-0.186-1.914,0.351-2.253,1.267l-6.186,16.624c-0.047,0.125-0.081,0.255-0.102,0.387l-4.353,27.7l-7.73-1.457l3.887-28.254  l11.134-37.992l5.761-1.659l4.173,2.164l-3.244,2.516c-0.396,0.307-0.503,0.86-0.251,1.293l16.978,29.155V86.28H44.946z   M81.702,83.489l-4.164-27.085c-0.021-0.134-0.055-0.265-0.102-0.392l-6.372-17.19c-0.34-0.917-1.292-1.453-2.253-1.269  c-0.96,0.185-1.646,1.036-1.621,2.014l0.765,30.796h-9.682c-0.553,0-1,0.448-1,1s0.447,1,1,1h9.732l0.413,16.617H57.594  l-0.869-1.638c-0.347-0.654-1.026-1.063-1.767-1.063h-3.961V49.3l17.177-29.153c0.255-0.432,0.15-0.985-0.244-1.295l-3.219-2.524  l4.283-2.079l5.43,1.58l11.267,38.36l3.759,27.629L81.702,83.489z M45.559,63.458c-1.642,0-2.977,1.314-2.977,2.929  c0,1.615,1.335,2.929,2.977,2.929s2.977-1.314,2.977-2.929C48.535,64.772,47.2,63.458,45.559,63.458z M45.559,67.316  c-0.538,0-0.977-0.417-0.977-0.929s0.438-0.929,0.977-0.929s0.977,0.417,0.977,0.929S46.097,67.316,45.559,67.316z M45.559,57.596  c1.642,0,2.977-1.314,2.977-2.929c0-1.615-1.335-2.929-2.977-2.929s-2.977,1.314-2.977,2.929  C42.582,56.282,43.917,57.596,45.559,57.596z M45.559,53.738c0.538,0,0.977,0.417,0.977,0.929s-0.438,0.929-0.977,0.929  s-0.977-0.417-0.977-0.929S45.021,53.738,45.559,53.738z M45.559,75.215c-1.642,0-2.977,1.314-2.977,2.929  c0,1.615,1.335,2.929,2.977,2.929s2.977-1.314,2.977-2.929C48.535,76.529,47.2,75.215,45.559,75.215z M45.559,79.073  c-0.538,0-0.977-0.417-0.977-0.929s0.438-0.929,0.977-0.929s0.977,0.417,0.977,0.929S46.097,79.073,45.559,79.073z M85.856,77.647  c-0.342,0.149-0.604,0.422-0.735,0.769c-0.131,0.345-0.118,0.719,0.034,1.051c0.229,0.503,0.734,0.804,1.261,0.804  c0.185,0,0.371-0.037,0.55-0.115c0.002,0,0.003-0.001,0.004-0.001c0.341-0.15,0.601-0.424,0.732-0.771  c0.13-0.344,0.117-0.718-0.037-1.052C87.354,77.656,86.544,77.349,85.856,77.647z M86.974,78.634  c0.071,0.154,0.077,0.334,0.017,0.494c-0.06,0.158-0.182,0.286-0.335,0.353c-0.308,0.135-0.665-0.002-0.807-0.312  c-0.071-0.154-0.077-0.334-0.018-0.493c0.06-0.157,0.181-0.285,0.332-0.352l0.403,0.915l-0.399-0.917  C86.473,78.186,86.834,78.325,86.974,78.634z M13.197,78.141c-0.761,0-1.38,0.614-1.38,1.37s0.619,1.37,1.38,1.37  s1.379-0.615,1.379-1.37S13.958,78.141,13.197,78.141z M13.197,80.141c-0.343,0-0.621-0.283-0.621-0.63  c0-0.347,0.278-0.63,0.621-0.63c0.342,0,0.62,0.283,0.62,0.63C13.817,79.858,13.539,80.141,13.197,80.141z M14.19,73.949  c-0.761,0-1.379,0.615-1.379,1.37s0.618,1.37,1.379,1.37s1.379-0.614,1.379-1.37S14.951,73.949,14.19,73.949z M14.19,75.949  c-0.343,0-0.621-0.283-0.621-0.63c0-0.348,0.278-0.63,0.621-0.63s0.621,0.283,0.621,0.63C14.812,75.667,14.533,75.949,14.19,75.949z   M85.006,73.426c-0.343,0.149-0.604,0.422-0.735,0.77c-0.131,0.344-0.118,0.716,0.034,1.05c0.229,0.503,0.733,0.803,1.26,0.803  c0.186,0,0.375-0.037,0.555-0.116c0.341-0.15,0.601-0.424,0.732-0.771c0.13-0.344,0.117-0.717-0.037-1.053  C86.501,73.432,85.687,73.126,85.006,73.426z M86.125,74.416c0.069,0.154,0.075,0.332,0.015,0.49  c-0.06,0.157-0.182,0.286-0.333,0.352c-0.31,0.135-0.664,0-0.809-0.312c-0.002-0.004-0.004-0.009-0.006-0.013l0.223-0.103  l-0.223,0.102c-0.065-0.151-0.069-0.325-0.012-0.479c0.06-0.157,0.181-0.285,0.336-0.353C85.626,73.966,85.982,74.104,86.125,74.416  z"></path></svg>