<svg height='100px' width='100px'  fill="#ffdf00" xmlns="http://www.w3.org/2000/svg" xmlns:xlink="http://www.w3.org/1999/xlink" xmlns:sketch="http://www.bohemiancoding.com/sketch/ns" viewBox="0 0 40 40" version="1.1" x="0px" y="0px"><title>suit_vest_coat_jacket_fashion_cloth</title><desc>Created with Sketch.</desc><g stroke="none" stroke-width="1" fill="none" fill-rule="evenodd" sketch:type="MSPage"><path d="M23.6361566,6.90392599 C26.1174164,8.6542004 27.1053415,7.89272411 28.7625083,8.91837758 C30.5812441,10.0440294 31.7162491,28.3334866 30.4843965,33.357738 C30.3826785,33.4509779 28.7625082,34.0244056 27.3930654,33.1556179 C27.5952462,25.7918165 27.0163683,22.9902776 26.8626914,19.7001904 C25.5973248,21.252824 27.0163683,27.04194 27.0163683,29.4298575 L27.0163683,34.0244056 C27.0163683,35.6001874 21.2659757,38.6246798 20.0000001,31.2937732 C18.7340245,38.6246798 12.9836317,35.6001874 12.9836317,34.0244056 L12.9836317,29.4298575 C12.9836317,27.04194 14.4026752,21.252824 13.1373086,19.7001904 C12.9836317,22.9902776 12.4047538,25.7918165 12.6069346,33.1556179 C11.2374918,34.0244056 9.61732155,33.4509779 9.51560355,33.357738 C8.28375093,28.3334866 9.41875588,10.0440294 11.2374917,8.91837758 C12.9319577,7.86963887 13.9267167,8.68938413 16.533681,6.7818749 L16.533681,6.7818749 C16.0366291,7.98187471 15.7370605,9.30651858 15.7370605,9.30651858 L16.5230713,10.0566407 L15.1201172,9.83215335 C15.5024587,13.8210449 20.0000002,21.4028324 20.0000002,21.4028324 C20.0000002,21.4028324 17.6672139,12.5489991 17.648504,5.86507759 C17.884976,5.6328676 18.6530172,5 20.0000001,5 C21.6496199,5 22.4309223,5.94919717 22.4309223,5.94919717 C22.4443313,5.960876 22.4577033,5.97249068 22.4710386,5.9840416 C22.4253578,12.653546 20.1201172,21.4028324 20.1201172,21.4028324 C20.1201172,21.4028324 24.6176587,13.8210449 25.0000002,9.83215335 L23.5970461,10.0566407 L24.3830569,9.30651858 C24.3830569,9.30651858 24.1033969,8.06990721 23.6361566,6.90392599 L23.6361566,6.90392599 Z M20.5,25 C20.7761424,25 21,24.7761424 21,24.5 C21,24.2238576 20.7761424,24 20.5,24 C20.2238576,24 20,24.2238576 20,24.5 C20,24.7761424 20.2238576,25 20.5,25 Z M20.5,28 C20.7761424,28 21,27.7761424 21,27.5 C21,27.2238576 20.7761424,27 20.5,27 C20.2238576,27 20,27.2238576 20,27.5 C20,27.7761424 20.2238576,28 20.5,28 Z" fill="#ffdf00" sketch:type="MSShapeGroup"></path></g></svg>