<svg xmlns="http://www.w3.org/2000/svg" xmlns:xlink="http://www.w3.org/1999/xlink" version="1.1" x="0px" y="0px" viewBox="0 0 30 37.488749999999996" style="enable-background:new 0 0 30 29.991;" xml:space="preserve"><g><path d="M28.914,1.651l-4.382-1.574c-0.248-0.089-0.529-0.072-0.766,0.048c-0.235,0.121-0.417,0.334-0.495,0.59l-7.433,24.286   c-0.095,0.31-0.377,0.521-0.694,0.521c-0.318,0-0.6-0.212-0.693-0.521L7.014,0.703C6.937,0.448,6.761,0.236,6.527,0.116   C6.295-0.005,6.023-0.024,5.776,0.062L1.118,1.659C0.477,1.883,0,2.497,0,3.188v25.111c0,0.892,0.799,1.692,1.673,1.692h26.681   c0.874,0,1.646-0.801,1.646-1.692V3.173C30,2.489,29.545,1.88,28.914,1.651z M27,21.255c0,0.401-0.318,0.736-0.712,0.736h-4.547   c-0.393,0-0.741-0.335-0.741-0.736v-1.488c0-0.401,0.349-0.775,0.741-0.775h4.547c0.394,0,0.712,0.374,0.712,0.775V21.255z"/><ellipse cx="15.014" cy="17.513" rx="1.452" ry="1.479"/><ellipse cx="15.014" cy="11.513" rx="1.452" ry="1.479"/><ellipse cx="15.014" cy="5.575" rx="1.452" ry="1.479"/></g><text x="0" y="44.991" fill="#000000" font-size="5px" font-weight="bold" font-family="'Helvetica Neue', Helvetica, Arial-Unicode, Arial, Sans-serif">Created by Yo! Baba</text><text x="0" y="49.991" fill="#000000" font-size="5px" font-weight="bold" font-family="'Helvetica Neue', Helvetica, Arial-Unicode, Arial, Sans-serif">from the Noun Project</text></svg>