<svg height='100px' width='100px'  fill="#000000" xmlns:dc="http://purl.org/dc/elements/1.1/" xmlns:cc="http://creativecommons.org/ns#" xmlns:rdf="http://www.w3.org/1999/02/22-rdf-syntax-ns#" xmlns:svg="http://www.w3.org/2000/svg" xmlns="http://www.w3.org/2000/svg" xmlns:sodipodi="http://sodipodi.sourceforge.net/DTD/sodipodi-0.dtd" xmlns:inkscape="http://www.inkscape.org/namespaces/inkscape" viewBox="0 0 8.4666665 8.4666669" version="1.1" x="0px" y="0px"><g transform="translate(0,-288.53332)"><path style="" d="m 2.8772662,289.59166 h 2.7121351 l -0.07128,0.26458 H 2.9485442 Z" fill="#000000" stroke="none"></path><path style="" d="m 3.5386672,295.94166 -1.823291,-2.46957 0.427412,-0.74712 -0.742221,-0.11735 0.200982,-2.3318 0.996295,-0.68416 h 0.142416 l 1.7106329,6.35 z" fill="#000000" stroke="none"></path><path style="" d="m 4.9280001,295.94166 1.8232911,-2.46957 -0.4274111,-0.74712 0.74222,-0.11735 -0.2009751,-2.3318 -0.9963018,-0.68416 H 5.7264073 l -1.4245672,5.2881 0.2860651,1.0619 z" fill="#000000" stroke="none"></path><path style="" d="m 3.3742273,295.94166 -1.8165151,-2.46039 0.375042,-0.65558 -0.674569,-0.10664 0.183488,-2.12892 -0.91250597,0.29813 v 4.52423 a 0.52916651,0.52916651 0 0 0 0.52916997,0.52917 z" fill="#000000" stroke="none"></path><path style="" d="m 7.0249942,290.59013 0.183488,2.12892 -0.6745682,0.10664 0.3750411,0.65558 -1.8165138,2.46039 H 7.4083302 A 0.52916651,0.52916651 0 0 0 7.9375,295.41249 v -4.52423 z" fill="#000000" stroke="none"></path></g></svg>